<svg width="147" height="53" viewBox="0 0 147 53" fill="none" xmlns="http://www.w3.org/2000/svg">
<path d="M47.1395 8.66417L34.6774 32.6494V44.4889H25.9078V32.6494L13.4457 8.66417H23.3948L30.3695 23.6677L37.2929 8.66417H47.1395Z" fill="black"/>
<path d="M67.6993 44.8462C64.3146 44.8462 61.2033 44.0637 58.3656 42.4987C55.562 40.9337 53.3226 38.7563 51.6473 35.9665C50.0062 33.1427 49.1857 29.9787 49.1857 26.4745C49.1857 22.9703 50.0062 19.8233 51.6473 17.0335C53.3226 14.2437 55.562 12.0663 58.3656 10.5013C61.2033 8.93634 64.3146 8.15385 67.6993 8.15385C71.0841 8.15385 74.1783 8.93634 76.9818 10.5013C79.8196 12.0663 82.0419 14.2437 83.6488 17.0335C85.2899 19.8233 86.1104 22.9703 86.1104 26.4745C86.1104 29.9787 85.2899 33.1427 83.6488 35.9665C82.0077 38.7563 79.7854 40.9337 76.9818 42.4987C74.1783 44.0637 71.0841 44.8462 67.6993 44.8462ZM67.6993 36.8851C70.5713 36.8851 72.862 35.9325 74.5715 34.0273C76.3151 32.1221 77.187 29.6045 77.187 26.4745C77.187 23.3105 76.3151 20.7929 74.5715 18.9217C72.862 17.0165 70.5713 16.0639 67.6993 16.0639C64.7932 16.0639 62.4683 16.9995 60.7247 18.8707C59.0152 20.7418 58.1604 23.2765 58.1604 26.4745C58.1604 29.6385 59.0152 32.1731 60.7247 34.0783C62.4683 35.9495 64.7932 36.8851 67.6993 36.8851Z" fill="black"/>
<path d="M114.888 19.9934C114.238 18.8026 113.298 17.901 112.067 17.2886C110.871 16.6422 109.452 16.319 107.811 16.319C104.973 16.319 102.699 17.2546 100.99 19.1258C99.2803 20.963 98.4255 23.4296 98.4255 26.5255C98.4255 29.8256 99.3144 32.4113 101.092 34.2824C102.904 36.1196 105.383 37.0382 108.529 37.0382C110.682 37.0382 112.495 36.4939 113.965 35.4052C115.469 34.3165 116.563 32.7515 117.247 30.7102H106.118V24.2801H125.196V32.3942C124.546 34.5716 123.435 36.5959 121.862 38.4671C120.324 40.3383 118.358 41.8523 115.965 43.009C113.571 44.1657 110.871 44.7441 107.862 44.7441C104.306 44.7441 101.126 43.9786 98.3229 42.4476C95.5536 40.8826 93.3826 38.7223 91.8098 35.9665C90.2713 33.2108 89.502 30.0638 89.502 26.5255C89.502 22.9873 90.2713 19.8403 91.8098 17.0845C93.3826 14.2947 95.5536 12.1344 98.3229 10.6034C101.092 9.03841 104.255 8.25591 107.811 8.25591C112.118 8.25591 115.743 9.29357 118.683 11.3689C121.657 13.4442 123.623 16.319 124.581 19.9934H114.888Z" fill="black"/>
<path d="M138.823 8.66417V44.4889H130.054V8.66417H138.823Z" fill="black"/>
<path fill-rule="evenodd" clip-rule="evenodd" d="M53.0621 14.9897C52.5527 15.6299 52.0811 16.3112 51.6473 17.0335C50.9086 18.2892 50.3362 19.6174 49.93 21.0179C49.4338 22.7287 49.1857 24.5476 49.1857 26.4745C49.1857 29.9787 50.0062 33.1427 51.6473 35.9665C53.026 38.2623 54.7866 40.1433 56.9293 41.6097C57.3904 41.9252 57.8691 42.2215 58.3656 42.4987C61.2033 44.0637 64.3146 44.8462 67.6993 44.8462C71.0841 44.8462 74.1783 44.0637 76.9818 42.4987C77.2317 42.3592 77.477 42.2148 77.7177 42.0655C79.9203 40.6997 81.7361 38.9264 83.165 36.7455C83.3315 36.4914 83.4928 36.2317 83.6488 35.9665C85.2819 33.1564 86.1025 30.0094 86.1104 26.5255C86.1104 26.5085 86.1104 26.4915 86.1104 26.4745C86.1104 22.9703 85.2899 19.8233 83.6488 17.0335C83.4982 16.772 83.3422 16.5159 83.1808 16.2652C81.8905 14.2612 80.2548 12.6009 78.2738 11.2843C77.8583 11.0082 77.4277 10.7472 76.9818 10.5013C74.1783 8.93634 71.0841 8.15385 67.6993 8.15385C64.3146 8.15385 61.2033 8.93634 58.3656 10.5013C57.6259 10.9143 56.9254 11.3698 56.2643 11.868C55.0684 12.7691 54.001 13.8096 53.0621 14.9897ZM61.7269 35.0011C61.9116 35.146 62.1015 35.2826 62.2966 35.4108C62.3082 35.4184 62.3199 35.4261 62.3316 35.4337C63.8203 36.4013 65.6096 36.8851 67.6993 36.8851C69.7672 36.8851 71.5337 36.3912 72.9989 35.4035C73.0704 35.3554 73.1411 35.306 73.2112 35.2554C73.6995 34.9032 74.1529 34.4938 74.5715 34.0273C76.3151 32.1221 77.187 29.6045 77.187 26.4745C77.187 23.3105 76.3151 20.7929 74.5715 18.9217C74.243 18.5557 73.8932 18.2248 73.5218 17.9291C73.3696 17.8078 73.2137 17.6925 73.0543 17.5831C73.0427 17.5752 73.0312 17.5673 73.0196 17.5595C71.5504 16.5624 69.7769 16.0639 67.6993 16.0639C65.5997 16.0639 63.8035 16.5522 62.3107 17.529C62.299 17.5366 62.2874 17.5442 62.2758 17.5519C61.9608 17.7603 61.6593 17.9905 61.3715 18.2427C61.1477 18.4388 60.9321 18.6481 60.7247 18.8707C59.0152 20.7418 58.1604 23.2765 58.1604 26.4745C58.1604 29.6385 59.0152 32.1731 60.7247 34.0783C61.0398 34.4165 61.3739 34.7241 61.7269 35.0011ZM66.7657 28.5783C66.7814 28.5923 66.7907 28.5988 66.7935 28.6007C66.798 28.6038 66.8081 28.6108 66.8361 28.6221C66.8841 28.6414 67.1302 28.7313 67.6993 28.7313C68.204 28.7313 68.4054 28.6526 68.4229 28.6455C68.4315 28.6381 68.45 28.6213 68.4778 28.5903L68.5047 28.5604L68.5318 28.5307L68.535 28.5272C68.6293 28.4244 69.0102 28.0092 69.0102 26.4745C69.0102 24.9027 68.6274 24.5182 68.5845 24.4751L68.5815 24.4721L68.5291 24.4159L68.4778 24.3587C68.45 24.3276 68.4315 24.3108 68.4229 24.3035C68.4054 24.2963 68.204 24.2177 67.6993 24.2177C67.1302 24.2177 66.8841 24.3076 66.8361 24.3269C66.8081 24.3382 66.798 24.3451 66.7935 24.3483C66.7894 24.351 66.7718 24.3634 66.7405 24.3943C66.644 24.5163 66.3372 25.017 66.3372 26.4745C66.3372 27.8777 66.6334 28.4038 66.7657 28.5783ZM80.9574 3.37612C76.8726 1.10008 72.398 0 67.6993 0C65.178 0 62.7211 0.316661 60.3522 0.958644L60.5852 0.510324H32.0546L30.3421 4.2213L28.617 0.510324H0L17.731 34.6363V52.6428H42.8542V36.5039C43.3314 37.7182 43.9034 38.9033 44.5727 40.055L44.6021 40.1055L44.6322 40.1556C47.0295 44.1478 50.3027 47.3423 54.3715 49.6136L54.3899 49.6238L54.4083 49.634C58.5113 51.8968 62.9932 53 67.6993 53C72.4051 53 76.8861 51.8966 80.9759 49.6136C83.55 48.1767 85.8018 46.3684 87.7082 44.2194C89.5683 46.3348 91.7719 48.1177 94.2915 49.5416L94.3433 49.5708L94.3955 49.5993C98.5339 51.8592 103.091 52.8979 107.862 52.8979C111.943 52.8979 115.888 52.1071 119.531 50.3464C120.338 49.9565 121.12 49.5322 121.877 49.0725V52.6428H147V0.510324H121.877V3.71881C117.655 1.19851 112.852 0.102063 107.811 0.102063C103.023 0.102063 98.4538 1.16546 94.3247 3.49073C91.7952 4.894 89.5901 6.66863 87.7321 8.78046C85.8209 6.61997 83.5523 4.80978 80.9574 3.37612ZM98.3229 10.6034C95.8506 11.9702 93.855 13.8387 92.3364 16.2088C92.154 16.4934 91.9785 16.7854 91.8098 17.0845C90.2787 19.827 89.5094 22.957 89.5021 26.4745C89.502 26.4915 89.502 26.5085 89.502 26.5255C89.502 30.0638 90.2713 33.2108 91.8098 35.9665C91.9735 36.2533 92.1437 36.5337 92.3203 36.8076C93.8126 39.1216 95.7674 40.9753 98.1847 42.3687C98.2306 42.3952 98.2767 42.4215 98.3229 42.4476C101.126 43.9786 104.306 44.7441 107.862 44.7441C108.086 44.7441 108.308 44.7409 108.529 44.7345C111.271 44.6548 113.75 44.0796 115.965 43.009C116.853 42.5796 117.683 42.1009 118.454 41.573C118.477 41.5572 118.5 41.5414 118.523 41.5255C119.799 40.6423 120.912 39.6228 121.862 38.4671C121.867 38.4614 121.872 38.4558 121.877 38.4501C123.231 36.8349 124.242 35.1057 124.91 33.2626C125.009 32.9889 125.1 32.7127 125.184 32.4339C125.188 32.4207 125.192 32.4075 125.196 32.3942V24.2801H106.118V30.7102H117.247C117.175 30.9234 117.1 31.1314 117.019 31.3343C116.866 31.7196 116.698 32.0861 116.513 32.4339C116.319 32.7983 116.107 33.1421 115.878 33.4653C115.862 33.4883 115.845 33.5112 115.829 33.5339C115.3 34.2649 114.678 34.8886 113.965 35.4052C113.553 35.7097 113.116 35.9716 112.651 36.1909C111.454 36.7558 110.08 37.0382 108.529 37.0382C108.303 37.0382 108.081 37.0335 107.862 37.024C107.254 36.9977 106.673 36.935 106.118 36.8358C104.72 36.5857 103.489 36.1039 102.427 35.3903C101.948 35.0682 101.503 34.6989 101.092 34.2824C100.151 33.2919 99.4591 32.1011 99.0162 30.7102C98.6224 29.4735 98.4255 28.0787 98.4255 26.5255C98.4255 25.7361 98.4811 24.9876 98.5922 24.2801C98.917 22.2126 99.7161 20.4946 100.99 19.1258C101.996 18.0243 103.198 17.2469 104.595 16.7939C105.08 16.6369 105.587 16.5188 106.118 16.4397C106.658 16.3593 107.222 16.319 107.811 16.319C108.675 16.319 109.478 16.4088 110.22 16.5882C110.885 16.7494 111.501 16.9828 112.067 17.2886C113.298 17.901 114.238 18.8026 114.888 19.9934H124.581C124.214 18.5872 123.7 17.2982 123.038 16.1262C122.692 15.5123 122.304 14.9305 121.877 14.3809C121.144 13.4395 120.293 12.5924 119.322 11.8395C119.115 11.6783 118.902 11.5214 118.683 11.3689C116.709 9.9758 114.427 9.05028 111.837 8.59233C110.569 8.36805 109.227 8.25591 107.811 8.25591C105.866 8.25591 104.038 8.49002 102.329 8.95823C100.913 9.34603 99.5775 9.89442 98.3229 10.6034ZM130.054 44.4889H138.823V8.66417H130.054V44.4889ZM47.1395 8.66417H37.2929L30.3695 23.6677L23.3948 8.66417H13.4457L25.9078 32.6494V44.4889H34.6774V32.6494L47.1395 8.66417Z" fill="#DDDDDD"/>
</svg>

